<svg xmlns="http://www.w3.org/2000/svg" width="21.504" height="21.5" viewBox="0 0 21.504 21.5">
  <g id="upload-icon" transform="translate(-1.246 -1.25)">
    <g id="Layer_53" data-name="Layer 53">
      <path id="Path_4131" data-name="Path 4131" d="M22,9.25a.76.76,0,0,0-.75.75v6l-4.18-4.78a2.84,2.84,0,0,0-4.14,0L10.06,14.5l-.94-1.14a2.76,2.76,0,0,0-4.24,0L2.75,15.93V6A3.26,3.26,0,0,1,6,2.75h8a.75.75,0,1,0,0-1.5H6A4.75,4.75,0,0,0,1.25,6V18a.09.09,0,0,0,0,.05A4.75,4.75,0,0,0,6,22.75H18a4.75,4.75,0,0,0,4.74-4.68V10A.76.76,0,0,0,22,9.25Zm-4,12H6a3.25,3.25,0,0,1-3.23-3L6,14.32a1.29,1.29,0,0,1,1.92,0l1.51,1.82a.74.74,0,0,0,.57.27.86.86,0,0,0,.57-.26l3.44-3.94a1.31,1.31,0,0,1,1.9,0l5.27,6A3.24,3.24,0,0,1,18,21.25Z" fill="#464343"/>
      <path id="Path_4132" data-name="Path 4132" d="M4.25,7A2.75,2.75,0,1,0,7,4.25,2.75,2.75,0,0,0,4.25,7Zm4,0A1.25,1.25,0,1,1,7,5.75,1.25,1.25,0,0,1,8.25,7ZM16,5.75h2.25V8a.75.75,0,0,0,1.5,0V5.75H22a.75.75,0,0,0,0-1.5H19.75V2a.75.75,0,1,0-1.5,0V4.25H16a.75.75,0,0,0,0,1.5Z" fill="#464343"/>
    </g>
  </g>
</svg>
